<svg xmlns="http://www.w3.org/2000/svg" width="256" height="256" viewBox="0 0 256 256" role="img" aria-label="VSCodex icon">
  <defs>
    <linearGradient id="frame" x1="42" y1="38" x2="216" y2="218" gradientUnits="userSpaceOnUse">
      <stop offset="0" stop-color="#b78cff"/>
      <stop offset="0.55" stop-color="#7a5cff"/>
      <stop offset="1" stop-color="#22d3ee"/>
    </linearGradient>
    <linearGradient id="panel" x1="36" y1="32" x2="220" y2="224" gradientUnits="userSpaceOnUse">
      <stop offset="0" stop-color="#2d2d30"/>
      <stop offset="1" stop-color="#181818"/>
    </linearGradient>
    <filter id="shadow" x="-10%" y="-10%" width="120%" height="120%">
      <feDropShadow dx="0" dy="8" stdDeviation="9" flood-color="#000000" flood-opacity="0.32"/>
    </filter>
  </defs>

  <rect x="20" y="20" width="216" height="216" rx="34" fill="url(#panel)" filter="url(#shadow)"/>
  <path d="M66 80 112 50v156L66 176l22-21 17 11V90L88 101 66 80Z" fill="#8b7dff"/>
  <path d="M190 62 112 50v156l78-12V62Z" fill="url(#frame)" opacity="0.92"/>
  <path d="M134 91 166 128l-32 37" fill="none" stroke="#f8fafc" stroke-width="14" stroke-linecap="round" stroke-linejoin="round"/>
  <path d="M76 132h40" fill="none" stroke="#22d3ee" stroke-width="13" stroke-linecap="round"/>
  <circle cx="182" cy="80" r="10" fill="#f8fafc"/>
  <circle cx="198" cy="128" r="10" fill="#22d3ee"/>
  <circle cx="182" cy="176" r="10" fill="#f8fafc"/>
  <path d="M184 89 196 118M196 138l-12 29" fill="none" stroke="#94a3b8" stroke-width="5" stroke-linecap="round"/>
</svg>
